<svg width="512" height="512" viewBox="0 0 512 512" fill="none" xmlns="http://www.w3.org/2000/svg">
<circle cx="256" cy="256" r="250" fill="#7277BD" stroke="#273567" stroke-width="12"/>
<path d="M150.624 178.244C148.68 180.186 149.085 182.184 152.151 185.77C154.887 188.971 159.783 197.447 159.22 198.009C159.061 198.167 156.538 197.604 153.612 196.757C147.081 194.868 140.222 193.877 133.67 193.877C129.54 193.877 128.495 194.087 127.453 195.128C125.336 197.241 125.896 199.21 130.262 205.019C136.86 213.797 141.403 224.738 142.256 233.902L142.659 238.231L139.153 242.011C132.344 249.355 126.024 259.57 121.792 270.072C120.458 273.381 119.143 276.162 118.87 276.252C118.596 276.343 113.139 276.946 106.743 277.595C94.5165 278.833 92.2577 279.482 89.9431 282.42C87.2909 285.787 87.3048 286.958 90.2869 310.657C91.8337 322.951 93.368 334.053 93.6974 335.328C94.3913 338.016 96.8286 341.13 99.1901 342.346C100.096 342.813 107.601 345.061 115.868 347.343C128.872 350.933 131.067 351.715 132.15 353.147C140.217 363.807 149.313 372.677 158.877 379.21L164.012 382.718L171.009 405.389C174.857 417.858 178.375 428.841 178.826 429.795C179.277 430.749 180.547 432.085 181.648 432.765C183.532 433.928 184.826 434 203.803 434C225.564 434 226.347 433.893 228.494 430.621C229.127 429.657 230.08 425.077 230.971 418.725C231.767 413.044 232.545 408.277 232.697 408.134C232.85 407.989 234.384 408.132 236.106 408.451C237.828 408.77 246.188 409.198 254.683 409.402C271.061 409.796 281.143 409.19 292.468 407.133C295.912 406.507 298.908 406.175 299.125 406.397C299.343 406.618 300.144 411.722 300.908 417.739C301.67 423.756 302.543 429.143 302.846 429.708C303.15 430.275 304.272 431.473 305.34 432.369L307.28 434H327.616C349.483 434 350.348 433.886 352.434 430.706C353.317 429.361 359.96 409.378 369.946 378.034C372.436 370.218 374.293 365.47 375.371 364.157C376.273 363.059 378.732 360.104 380.836 357.591C393.161 342.87 400.743 324.064 401.352 306.708L401.562 300.73L405.371 298.245C413.5 292.942 421.266 282.467 423.953 273.183C425.927 266.36 424.959 252.403 422.315 249.569C420.844 247.993 417.927 247.892 416.669 249.374C416.158 249.976 415.385 251.709 414.951 253.226C412.831 260.633 405.339 267.158 397.282 268.615L395.009 269.026L391.83 262.562C378.419 235.284 351.336 213.819 317.357 203.534C300.034 198.291 287.375 196.393 266.698 195.94C245.495 195.475 227.916 196.993 214.545 200.444L211.145 201.321L206.963 197.381C195.264 186.362 180.304 179.474 164.088 177.641C155.262 176.643 152.085 176.785 150.624 178.244Z" fill="#273567"/>
<path fill-rule="evenodd" clip-rule="evenodd" d="M243.935 218.648C239.241 219.19 227.347 221.246 227.022 221.572C226.91 221.684 227.239 223.506 227.752 225.622C228.482 228.631 228.881 229.406 229.589 229.184C232.575 228.25 245.27 226.513 252.443 226.059C267.766 225.089 282.509 226.725 296.494 230.949C299.13 231.745 301.477 232.185 301.71 231.926C302.144 231.442 304 226.146 304 225.39C304 224.522 291.84 221.114 283.978 219.779C273.378 217.978 254.377 217.441 243.935 218.648Z" fill="#7277BD"/>
<path d="M176.5 271.37C176.5 276.893 172.023 281.37 166.5 281.37C160.977 281.37 156.5 276.893 156.5 271.37C156.5 265.848 160.977 261.37 166.5 261.37C172.023 261.37 176.5 265.848 176.5 271.37Z" fill="#7277BD"/>
<circle cx="265.5" cy="125.5" r="56.5" fill="#DFBA75" stroke="#273567" stroke-width="10"/>
<circle cx="265.5" cy="125.5" r="48" stroke="#F9E2B3" stroke-width="7"/>
<path d="M265.025 119.191L255.167 96.8665C254.091 94.4297 251.26 93.3338 248.843 94.4187C246.426 95.5037 245.339 98.3585 246.415 100.795L257.661 126.262H252.679C250.033 126.262 247.889 128.424 247.889 131.092C247.889 133.759 250.033 135.921 252.679 135.921H260.206V139.371H252.679C250.033 139.371 247.889 141.534 247.889 144.201C247.889 146.868 250.033 149.031 252.679 149.031H260.206V153.17C260.206 155.838 262.351 158 264.996 158C267.642 158 269.786 155.838 269.786 153.17V149.031H277.314C279.959 149.031 282.104 146.868 282.104 144.201C282.104 141.534 279.959 139.371 277.314 139.371H269.786V135.921H277.314C279.959 135.921 282.104 133.759 282.104 131.092C282.104 128.424 279.959 126.262 277.314 126.262H272.39L283.585 100.911C284.661 98.4738 283.574 95.6189 281.157 94.534C278.74 93.4491 275.909 94.5449 274.833 96.9817L265.025 119.191Z" fill="#273567"/>
</svg>
